<?xml version="1.0" encoding="utf-8"?>
<!-- Generator: Adobe Illustrator 21.0.0, SVG Export Plug-In . SVG Version: 6.00 Build 0)  -->
<svg version="1.1" id="Layer_1" xmlns="http://www.w3.org/2000/svg" xmlns:xlink="http://www.w3.org/1999/xlink" x="0px" y="0px"
	 viewBox="0 0 1024 512" style="enable-background:new 0 0 1024 512;" xml:space="preserve">
<style type="text/css">
	.st0{fill:#D04628;}
	.st1{fill:#3C66B1;}
	.st2{fill:#52A2E7;}
</style>
<g>
	<path class="st0" d="M68.4,199.9c-19.2,0-34.4-5.8-45.7-17.4c-11.3-11.6-16.9-27.9-16.9-48.9c0-20.3,5.7-36.5,17-48.5
		C34,73,49.3,66.9,68.5,66.9c5.1,0,9.7,0.3,13.8,0.9c4.1,0.6,8,1.4,11.7,2.4c2.9,0.9,6.1,2,9.5,3.5c3.4,1.5,6.2,2.8,8.3,3.9v30.5
		h-3.3c-1.5-1.4-3.5-3-5.8-4.9c-2.3-1.9-5-3.8-8-5.6c-3-1.8-6.3-3.4-9.8-4.7c-3.6-1.3-7.3-1.9-11.2-1.9c-4.6,0-8.9,0.7-12.8,2.2
		s-7.5,4-11,7.6c-3.2,3.3-5.8,7.7-7.9,13.2c-2,5.6-3.1,12.1-3.1,19.7c0,8,1.1,14.7,3.2,20.1c2.1,5.4,4.9,9.8,8.3,13.1
		c3.3,3.2,7,5.5,11.1,7c4.1,1.4,8.2,2.1,12.2,2.1c4.2,0,8.3-0.7,12.1-2.1c3.8-1.4,7.1-3,9.7-4.7c2.9-1.8,5.4-3.6,7.6-5.4
		c2.2-1.8,4.1-3.5,5.7-4.9h2.9v30.1c-2.3,1.1-5.1,2.3-8.2,3.7c-3.1,1.4-6.3,2.6-9.5,3.6c-4,1.2-7.8,2.1-11.3,2.8
		C79.3,199.6,74.5,199.9,68.4,199.9z"/>
	<path class="st0" d="M194.5,197.4h-68.9V175h18.4V91.8h-18.4V69.4h68.9v22.3h-18.4V175h18.4V197.4z"/>
	<path class="st0" d="M325.4,197.4h-30.9l-49.3-89.2v89.2h-29.4v-128h39.4l40.8,73.3V69.4h29.4V197.4z"/>
	<path class="st0" d="M351.4,197.4v-128h86.5v24.4h-54.6v22.4h50.3v24.4h-50.3V173h54.6v24.4H351.4z"/>
	<path class="st0" d="M590.4,197.4h-32v-84.8l-23.3,54.7h-21.9l-23.3-54.7v84.8h-30.3v-128h37l28.4,63.2l28.3-63.2h37V197.4z"/>
	<path class="st0" d="M603.1,197.4l43.2-128h35.1l43.2,128h-33.1l-8-26.1h-40.2l-8,26.1H603.1z M676.5,148.1l-13.1-42.2l-13.1,42.2
		H676.5z"/>
</g>
<g>
	<path class="st0" d="M42.8,422.1V318.5H5v-24.4h107.8v24.4H75v103.6H42.8z"/>
	<path class="st0" d="M189.8,422.1h-68.9v-22.3h18.4v-83.3h-18.4v-22.3h68.9v22.3h-18.4v83.3h18.4V422.1z"/>
	<path class="st0" d="M266.3,424.6c-19.2,0-34.4-5.8-45.7-17.4c-11.3-11.6-16.9-27.9-16.9-48.9c0-20.3,5.7-36.5,17-48.5
		c11.3-12.1,26.6-18.1,45.8-18.1c5.1,0,9.7,0.3,13.8,0.9c4.1,0.6,8,1.4,11.7,2.4c2.9,0.9,6.1,2,9.5,3.5c3.4,1.5,6.2,2.8,8.3,3.9
		v30.5h-3.3c-1.5-1.4-3.5-3-5.8-4.9c-2.3-1.9-5-3.8-8-5.6c-3-1.8-6.3-3.4-9.8-4.7c-3.6-1.3-7.3-1.9-11.2-1.9
		c-4.6,0-8.9,0.7-12.8,2.2s-7.5,4-11,7.6c-3.2,3.3-5.8,7.7-7.9,13.2c-2,5.6-3.1,12.1-3.1,19.7c0,8,1.1,14.7,3.2,20.1
		c2.1,5.4,4.9,9.8,8.3,13.1c3.3,3.2,7,5.5,11.1,7c4.1,1.4,8.2,2.1,12.2,2.1c4.2,0,8.3-0.7,12.1-2.1c3.8-1.4,7.1-3,9.7-4.7
		c2.9-1.8,5.4-3.6,7.6-5.4c2.2-1.8,4.1-3.5,5.7-4.9h2.9v30.1c-2.3,1.1-5.1,2.3-8.2,3.7c-3.1,1.4-6.3,2.6-9.5,3.6
		c-4,1.2-7.8,2.1-11.3,2.8C277.2,424.3,272.4,424.6,266.3,424.6z"/>
	<path class="st0" d="M440.7,422.1h-38.8l-34.9-52l-6.3,8.8v43.2h-32.1v-128h32.1v56.8l40.9-56.8h37.2l-45.6,59.4L440.7,422.1z"/>
	<path class="st0" d="M451.1,422.1v-128h86.5v24.4h-54.6V341h50.3v24.4h-50.3v32.3h54.6v24.4H451.1z"/>
	<path class="st0" d="M584,422.1V318.5h-37.8v-24.4h107.8v24.4h-37.8v103.6H584z"/>
	<path class="st0" d="M706.7,424.4c-9.8,0-18.4-0.9-25.8-2.8c-7.4-1.9-14.3-4.2-20.7-7v-30.4h2.9c6.4,5.4,13.5,9.6,21.2,12.5
		s15.2,4.4,22.5,4.4c1.8,0,4.3-0.2,7.3-0.6c3-0.4,5.4-1,7.3-1.9c2.2-1,4.1-2.3,5.7-4.1c1.5-1.7,2.3-4.1,2.3-6.9
		c0-3.2-1.3-5.8-3.8-7.8c-2.5-2-5.5-3.5-9-4.4c-4.4-1.1-9-2.2-14-3.3c-5-1-9.6-2.3-13.9-3.8c-9.9-3.5-17-8.2-21.3-14.1
		c-4.3-5.9-6.4-13.3-6.4-22.2c0-12,5.1-21.7,15.2-29.1c10.1-7.4,22.8-11.1,38-11.1c7.6,0,15.2,0.8,22.7,2.3
		c7.5,1.5,14.3,3.6,20.2,6.3v29.2h-2.8c-4.8-4.1-10.6-7.5-17.4-10.3c-6.8-2.8-13.9-4.2-21.1-4.2c-2.8,0-5.3,0.2-7.6,0.6
		c-2.2,0.4-4.6,1.2-7,2.3c-2,0.9-3.7,2.3-5.2,4.1s-2.2,3.8-2.2,6.1c0,3.3,1.2,5.9,3.5,7.8c2.3,1.9,6.8,3.7,13.4,5.2
		c4.3,1,8.4,1.9,12.4,2.8c4,0.9,8.2,2.2,12.8,3.8c8.9,3.2,15.5,7.5,19.8,12.9c4.3,5.4,6.5,12.6,6.5,21.4c0,12.7-5,22.9-15,30.7
		C737.2,420.5,723.7,424.4,706.7,424.4z"/>
</g>
<g id="XMLID_5_">
	<g>
		<path class="st0" d="M995.6,298.6c2.6,0,4.7,2.1,4.7,4.7c0,2.6-2.1,4.7-4.7,4.7c-25.2,0-45.6-20.5-45.6-45.6v-29.4
			c0-2.6,2.1-4.7,4.7-4.7c2.6,0,4.7,2.1,4.7,4.7v29.4C959.3,282.4,975.6,298.6,995.6,298.6z"/>
	</g>
	<g>
	</g>
</g>
<g id="XMLID_1_">
	<g>
		<path class="st1" d="M874.7,62.4c68.5,0,124,55.5,124,123.9s-55.5,124-124,124c-68.5,0-124-55.5-124-124S806.2,62.4,874.7,62.4z"
			/>
	</g>
	<g>
	</g>
</g>
<g id="XMLID_4_">
	<g>
		<circle class="st0" cx="874.7" cy="186.4" r="80.3"/>
	</g>
	<g>
	</g>
</g>
<g id="XMLID_2_">
	<g>
		<path class="st2" d="M874.7,46.1c77.5,0,140.3,62.8,140.3,140.3s-62.8,140.3-140.3,140.3s-140.3-62.8-140.3-140.3
			S797.2,46.1,874.7,46.1z M962,196.4c19.2-6.2,29.6-26.8,23.4-46c-6.2-19.2-26.8-29.6-46-23.4c-19.2,6.2-29.6,26.8-23.4,46
			C922.3,192.1,942.9,202.6,962,196.4z M943.1,280.6c16.3-11.9,19.9-34.7,8.1-51c-11.8-16.3-34.7-19.9-51-8.1s-19.9,34.7-8.1,51
			C904,288.8,926.8,292.4,943.1,280.6z M911.2,106.4c0-20.2-16.3-36.5-36.5-36.5s-36.5,16.3-36.5,36.5c0,20.1,16.3,36.5,36.5,36.5
			S911.2,126.5,911.2,106.4z M857.2,272.5c11.8-16.3,8.2-39.1-8.1-51s-39.1-8.2-51,8.1c-11.8,16.3-8.2,39.1,8.1,51
			C822.5,292.4,845.3,288.8,857.2,272.5z M833.3,172.9c6.2-19.2-4.3-39.7-23.4-46c-19.2-6.2-39.7,4.3-46,23.4
			c-6.2,19.2,4.3,39.8,23.4,46C806.5,202.6,827.1,192.1,833.3,172.9z"/>
	</g>
	<g>
	</g>
</g>
<g id="XMLID_3_">
	<g>
		<circle cx="874.7" cy="186.4" r="19.6"/>
	</g>
	<g>
	</g>
</g>
</svg>
