<svg width="32" height="32" xmlns="http://www.w3.org/2000/svg">

 <g>
  <title>background</title>
  <rect fill="none" id="canvas_background" height="402" width="582" y="-1" x="-1"/>
 </g>
 <g>
  <title>Layer 1</title>
  <rect id="svg_1" width="32" height="32" fill="none"/>
  <path fill="#615c5c" id="svg_2" d="m26,8l-18,0l0,2l18,0l0,-2zm0,4l-18,0l0,2l15,0l3,0l0,-2zm4,5.35l0,-15.35l-28,0l0,28l2.414,0l6.002,-6l3.643,0c0.498,4.498 4.309,7.998 8.941,8c4.97,-0.002 8.998,-4.03 9,-9c-0.001,-2.142 -0.752,-4.105 -2,-5.65zm-15.941,4.65l-4.475,0l-5.584,5.583l0,-23.583l24,0l0,11.518c-1.431,-0.958 -3.149,-1.518 -5,-1.518c-2.143,0 -4.106,0.751 -5.652,2l-9.348,0l0,2l7.517,0c-0.782,1.169 -1.296,2.531 -1.458,4zm8.941,7.882c-3.801,-0.008 -6.876,-3.083 -6.884,-6.882c0.008,-3.801 3.083,-6.876 6.884,-6.884c3.799,0.008 6.874,3.083 6.882,6.884c-0.008,3.799 -3.083,6.874 -6.882,6.882z"/>
  <rect fill="#615c5c" id="svg_4" y="22" x="18" width="10" height="2"/>
 </g>
</svg>